<svg width="65" height="65" viewBox="0 0 65 65" fill="none" xmlns="http://www.w3.org/2000/svg">
  <rect width="65" height="65" rx="32.5" fill="#e0e0e0" />
  <path fill-rule="evenodd" clip-rule="evenodd" d="M29.031 21.2776H21.4563V20.2776H29.031V21.2776Z" fill="#d32f2f" />
  <path fill-rule="evenodd" clip-rule="evenodd" d="M29.031 24.162H21.4563V23.162H29.031V24.162Z" fill="#d32f2f" />
  <path fill-rule="evenodd" clip-rule="evenodd" d="M43.459 32.0983H21.4563V31.0983H43.459V32.0983Z" fill="#d32f2f" />
  <path fill-rule="evenodd" clip-rule="evenodd" d="M43.459 34.9827H21.4563V33.9827H43.459V34.9827Z" fill="#d32f2f" />
  <path fill-rule="evenodd" clip-rule="evenodd" d="M43.459 37.8699H21.4563V36.8699H43.459V37.8699Z" fill="#d32f2f" />
  <path fill-rule="evenodd" clip-rule="evenodd" d="M42.959 13.5624H43.959V17.7515H47.7874V18.7515H42.959V13.5624Z" fill="#d32f2f" />
  <path fill-rule="evenodd" clip-rule="evenodd" d="M18.6621 50.7981H47.0004V32.5006V22.8519V18.4284L42.9644 14.2031H18.6621V50.7981ZM43.3921 13.2031H18.6621H17.6621V14.2031V50.7981V51.7981H18.6621H47.0004H48.0004V50.7981V32.5006V22.8519V18.0275L43.3921 13.2031Z" fill="#d32f2f" />
  <path d="M21.9802 43.7885L22.4706 45.298H24.0579L22.7738 46.2309L23.2642 47.7405L21.9802 46.8075L20.6961 47.7405L21.1866 46.2309L19.9025 45.298H21.4897L21.9802 43.7885Z" fill="#d32f2f" />
  <path fill-rule="evenodd" clip-rule="evenodd" d="M21.9802 43.7885L21.4897 45.298H19.9025L21.1866 46.2309L20.6961 47.7405L21.9802 46.8075L23.2642 47.7405L22.7738 46.2309L24.0579 45.298H22.4706L21.9802 43.7885Z" fill="#d32f2f" />
  <path d="M27.0778 43.7878L27.5682 45.2974H29.1555L27.8714 46.2303L28.3618 47.7399L27.0778 46.8069L25.7937 47.7399L26.2841 46.2303L25.0001 45.2974H26.5873L27.0778 43.7878Z" fill="#d32f2f" />
  <path fill-rule="evenodd" clip-rule="evenodd" d="M27.0778 43.7878L26.5873 45.2974H25.0001L26.2841 46.2303L25.7937 47.7399L27.0778 46.8069L28.3618 47.7399L27.8714 46.2303L29.1555 45.2974H27.5682L27.0778 43.7878Z" fill="#d32f2f" />
  <path d="M32.9034 43.7878L33.3939 45.2974H34.9811L33.6971 46.2303L34.1875 47.7399L32.9034 46.8069L31.6194 47.7399L32.1098 46.2303L30.8257 45.2974H32.413L32.9034 43.7878Z" fill="#d32f2f" />
  <path fill-rule="evenodd" clip-rule="evenodd" d="M32.9034 43.7878L32.413 45.2974H30.8257L32.1098 46.2303L31.6194 47.7399L32.9034 46.8069L34.1875 47.7399L33.6971 46.2303L34.9811 45.2974H33.3939L32.9034 43.7878Z" fill="#d32f2f" />
  <path d="M38.7291 43.7878L39.2195 45.2974H40.8068L39.5227 46.2303L40.0132 47.7399L38.7291 46.8069L37.445 47.7399L37.9355 46.2303L36.6514 45.2974H38.2386L38.7291 43.7878Z" fill="#d32f2f" />
  <path fill-rule="evenodd" clip-rule="evenodd" d="M38.7291 43.7878L38.2386 45.2974H36.6514L37.9355 46.2303L37.445 47.7399L38.7291 46.8069L40.0132 47.7399L39.5227 46.2303L40.8068 45.2974H39.2195L38.7291 43.7878Z" fill="#d32f2f" />
  <path d="M44.5547 43.7878L45.0452 45.2974H46.6324L45.3484 46.2303L45.8388 47.7399L44.5547 46.8069L43.2707 47.7399L43.7611 46.2303L42.4771 45.2974H44.0643L44.5547 43.7878Z" fill="#d32f2f" />
  <path fill-rule="evenodd" clip-rule="evenodd" d="M44.5547 43.7878L44.0643 45.2974H42.4771L43.7611 46.2303L43.2707 47.7399L44.5547 46.8069L45.8388 47.7399L45.3484 46.2303L46.6324 45.2974H45.0452L44.5547 43.7878Z" fill="#d32f2f" />
</svg>