<svg width="65" height="65" viewBox="0 0 65 65" fill="none" xmlns="http://www.w3.org/2000/svg">
  <rect width="65" height="65" rx="32.5" fill="#e0e0e0" />
  <path fill-rule="evenodd" clip-rule="evenodd" d="M24 11.5H30.5C31.4022 11.5 32.0482 11.8695 32.4565 12.3922C32.5072 12.4571 32.5539 12.5238 32.5967 12.5919C32.6754 12.5005 32.7603 12.4131 32.8501 12.331C33.3695 11.8561 34.1119 11.5 35 11.5H41V14H44V18H52.5V22.5H51.5V51H13.5V22.5H12.5V18H21V14H24V11.5ZM24 15H22V26.5H43V15H41V24.5H24V15ZM21 19H13.5V21.5H21V19ZM21 22.5H14.5V29H50.5V22.5H44V27.5H21V22.5ZM44 21.5H51.5V19H44V21.5ZM50.5 30H14.5V50H27V37H38V50H50.5V30ZM37 50V38H28V50H37ZM32 14C32 13.6905 31.9004 13.3046 31.6685 13.0078C31.4518 12.7305 31.0978 12.5 30.5 12.5H25V23.5H32V14ZM33 23.5V14C33 13.7843 33.1534 13.4086 33.5249 13.069C33.8805 12.7439 34.3881 12.5 35 12.5H40V23.5H33ZM30.5 16H27V15H30.5V16ZM38 16H34.5V15H38V16ZM30.5 19H27V18H30.5V19ZM38 19H34.5V18H38V19ZM30.5 21.5H27V20.5H30.5V21.5ZM38 21.5H34.5V20.5H38V21.5ZM18 33H24.5V41H18V33ZM19 34V40H23.5V34H19ZM40.5 33H47V41H40.5V33ZM41.5 34V40H46V34H41.5ZM30 44.5V42.5H31V44.5H30Z" fill="#d32f2f" />
</svg>